<svg width="40" height="40" viewBox="0 0 40 40" fill="none" xmlns="http://www.w3.org/2000/svg">
<circle cx="20" cy="20" r="19.4909" stroke="#3C78AF" stroke-width="1.01818"/>
<path d="M24.161 7.10742C24.2708 8.54161 23.8173 9.96213 22.8966 11.0673C22.4558 11.6156 21.8963 12.0567 21.2603 12.3574C20.6242 12.6582 19.9283 12.8106 19.2248 12.8034C19.1799 12.1137 19.2714 11.422 19.494 10.7676C19.7166 10.1133 20.066 9.50933 20.5222 8.99013C21.4553 7.92736 22.7545 7.25515 24.161 7.10742Z" fill="#3C78AF"/>
<path d="M26.7266 17.5458C26.2592 18.3694 26.0077 19.2978 25.9955 20.2446C25.9967 21.3097 26.3113 22.3509 26.9002 23.2384C27.4891 24.1258 28.3262 24.8203 29.3072 25.2352C28.9215 26.4881 28.3402 27.6721 27.5847 28.7434C26.57 30.2612 25.5062 31.744 23.8177 31.7714C23.0147 31.7899 22.4727 31.559 21.9078 31.3184C21.3187 31.0674 20.7047 30.8059 19.744 30.8059C18.7251 30.8059 18.0837 31.0758 17.465 31.3362C16.9304 31.5612 16.4129 31.779 15.6834 31.8093C14.0754 31.8688 12.8465 30.1894 11.795 28.6858C9.69336 25.6154 8.05687 20.0327 10.2508 16.2342C10.7573 15.3241 11.4909 14.5606 12.3802 14.0183C13.2694 13.476 14.284 13.1732 15.325 13.1396C16.237 13.1209 17.1121 13.4724 17.8794 13.7805C18.4662 14.0162 18.9898 14.2266 19.4186 14.2266C19.7956 14.2266 20.3047 14.0245 20.8979 13.7891C21.8324 13.4182 22.9759 12.9643 24.1412 13.0867C25.0342 13.1146 25.9084 13.3504 26.6944 13.7753C27.4804 14.2002 28.1564 14.8025 28.6689 15.5344C27.8622 16.0303 27.1941 16.7223 26.7266 17.5458Z" fill="#3C78AF"/>
</svg>
