<svg width="40" height="40" viewBox="0 0 40 40" fill="none" xmlns="http://www.w3.org/2000/svg">
<circle cx="20" cy="20" r="19.4909" stroke="#3C78AF" stroke-width="1.01818"/>
<path d="M17.454 33.3098C11.2722 32.2189 6.54492 26.8371 6.54492 20.3643C6.54492 13.1643 12.4358 7.27344 19.6358 7.27344C26.8358 7.27344 32.7267 13.1643 32.7267 20.3643C32.7267 26.8371 27.9995 32.2189 21.8176 33.3098L21.0904 32.728H18.1813L17.454 33.3098Z" fill="#3C78AF"/>
<path d="M24.7271 24.0016L25.3089 20.3652H21.818V17.8198C21.818 16.8016 22.1816 16.0016 23.7816 16.0016H25.4544V12.6561C24.5089 12.5107 23.4907 12.3652 22.5453 12.3652C19.5635 12.3652 17.4544 14.1834 17.4544 17.4561V20.3652H14.1816V24.0016H17.4544V33.238C18.1816 33.3834 18.9089 33.4561 19.6362 33.4561C20.3635 33.4561 21.0907 33.3834 21.818 33.238V24.0016H24.7271Z" fill="white"/>
</svg>
