<svg width="40" height="40" viewBox="0 0 40 40" fill="none" xmlns="http://www.w3.org/2000/svg">
<circle cx="20" cy="20" r="19.4909" stroke="#3C78AF" stroke-width="1.01818"/>
<path d="M24.1973 14.7682C22.9283 13.5431 21.3142 12.9193 19.5164 12.9193C16.3271 12.9193 13.6277 15.0942 12.6648 18.0165C12.4199 18.7583 12.2808 19.5508 12.2808 20.3656C12.2808 21.1805 12.4199 21.9729 12.6648 22.7147C13.6277 25.637 16.3271 27.8119 19.5164 27.8119C21.1639 27.8119 22.5665 27.3735 23.663 26.6317C24.9598 25.755 25.8225 24.4456 26.1064 22.9002H19.5164V18.1177H31.0489C31.1936 18.9269 31.2715 19.7699 31.2715 20.6466C31.2715 24.4119 29.9357 27.5815 27.6203 29.7339C25.5943 31.6221 22.8225 32.7292 19.5164 32.7292C14.7298 32.7292 10.5888 29.9587 8.57392 25.918C7.74461 24.2489 7.27148 22.3607 7.27148 20.3656C7.27148 18.3706 7.74458 16.4823 8.5739 14.8132C10.5887 10.7726 14.7297 8.00195 19.5164 8.00195C22.8169 8.00195 25.5887 9.22708 27.7093 11.2221L24.1973 14.7682Z" fill="#3C78AF"/>
</svg>
